<svg xmlns="http://www.w3.org/2000/svg" width="933.333" height="933.333" preserveAspectRatio="xMidYMid meet" version="1.0" viewBox="0 0 700 700"><metadata>Created by potrace 1.11, written by Peter Selinger 2001-2013</metadata><g fill="#000" stroke="none"><path d="M490 6630 c0 -3 -10 -6 -22 -7 -52 -5 -72 -10 -76 -21 -2 -7 -8 -12 -13 -12 -17 0 -79 -45 -79 -57 0 -7 -4 -13 -9 -13 -14 0 -64 -107 -67 -143 -1 -17 -3 -32 -4 -32 -1 0 -2 -215 -3 -478 -1 -262 2 -477 6 -477 5 0 5 -5 1 -12 -4 -6 -7 -201 -7 -432 l0 -421 -23 -43 c-14 -24 -22 -47 -20 -51 3 -4 -4 -13 -14 -21 -10 -8 -17 -17 -15 -20 3 -4 -7 -32 -22 -61 -14 -30 -26 -60 -26 -66 0 -7 -5 -13 -10 -13 -5 0 -7 -7 -3 -15 3 -8 2 -15 -3 -15 -8 0 -47 -109 -43 -122 1 -5 -2 -8 -8 -8 -6 0 -9 -3 -8 -7 1 -5 -4 -27 -11 -50 -8 -31 -11 -154 -8 -465 3 -233 6 -429 7 -435 2 -7 8 -13 13 -13 5 0 7 -7 3 -15 -3 -8 -1 -15 5 -15 6 0 7 -4 4 -10 -3 -5 -2 -10 3 -10 8 0 16 -17 27 -55 3 -11 48 -82 65 -102 6 -7 7 -13 3 -13 -4 0 -3 -4 2 -8 6 -4 26 -27 46 -52 l37 -45 -2 -143 c0 -78 3 -142 7 -142 5 0 5 -5 1 -11 -8 -13 -12 -319 -4 -319 3 0 6 -19 6 -43 1 -23 11 -59 23 -79 11 -21 19 -38 16 -38 -11 0 83 -88 110 -102 41 -23 95 -39 106 -32 5 3 9 2 9 -3 0 -4 983 -8 2185 -8 1202 0 2185 -2 2185 -5 -1 -3 -79 -86 -174 -184 l-174 -179 107 -109 c58 -60 163 -168 233 -241 l126 -131 71 69 c39 38 71 71 71 74 0 5 -120 132 -271 287 l-50 50 21 25 c12 13 81 85 154 159 148 151 152 156 137 173 -8 10 29 13 175 12 172 0 189 -2 185 -27 -3 -23 -13 -78 -27 -141 -9 -39 -17 -81 -19 -92 -2 -11 -13 -64 -25 -119 -12 -54 -23 -108 -26 -120 -2 -11 -27 -131 -55 -264 -28 -134 -49 -245 -47 -247 2 -2 39 -11 83 -19 44 -9 87 -19 96 -22 16 -5 27 24 43 116 3 14 34 165 70 335 36 171 67 322 70 338 3 15 8 38 11 51 3 13 14 68 25 121 21 104 29 120 63 131 55 17 160 164 141 196 -4 7 -3 8 4 4 13 -8 13 -20 14 317 l0 227 224 0 224 0 0 -27 c1 -16 1 -155 1 -310 l0 -283 103 0 102 0 1 382 0 383 -327 328 -328 328 0 709 c0 390 3 709 7 708 3 0 8 0 11 1 3 1 24 4 48 5 31 3 49 11 68 31 14 15 23 33 20 41 -3 7 0 15 7 18 9 5 9 7 -1 12 -6 3 -10 10 -7 14 3 5 -30 45 -74 90 l-79 81 0 590 c0 324 -2 592 -5 595 -3 3 -3 12 -1 19 3 7 1 16 -5 19 -6 4 -8 13 -4 21 3 9 -1 15 -8 15 -12 0 -12 2 -1 9 11 7 11 9 -2 14 -9 4 -16 12 -16 19 0 7 -11 25 -24 40 -14 14 -22 29 -19 32 4 3 2 6 -4 6 -5 0 -20 9 -33 20 -13 11 -29 20 -36 20 -7 0 -14 5 -16 11 -2 6 -15 12 -30 12 -14 1 -24 5 -22 9 3 4 -4 7 -13 8 -84 3 -5163 4 -5163 0z m-271 -2827 c0 -291 1 -537 1 -548 -1 -11 -1 -32 -1 -48 0 -22 -2 -25 -13 -15 -8 7 -14 15 -13 18 0 3 -8 23 -18 45 -19 42 -25 62 -27 83 -1 6 -5 12 -9 12 -4 0 -9 15 -12 33 -3 17 -10 52 -16 77 -27 110 -30 320 -6 455 3 17 7 41 9 55 3 14 5 25 6 25 1 0 3 8 5 19 2 10 9 40 15 66 6 26 13 54 14 61 2 8 8 27 14 42 7 16 12 36 12 45 0 10 7 28 16 40 12 17 12 22 2 22 -9 0 -9 3 2 10 8 5 11 10 7 10 -7 0 0 20 7 20 2 0 4 -237 5 -527z m5838 -795 c63 -62 118 -120 123 -128 7 -13 -8 -15 -118 -15 l-127 1 -2 127 c-2 70 0 127 3 127 4 0 58 -51 121 -112z" transform="translate(0.000000,700.000000) scale(0.100000,-0.100000)"/><path d="M6011 1919 c-42 -40 -69 -73 -65 -80 3 -6 72 -79 153 -161 80 -82 149 -155 153 -162 4 -7 -58 -78 -153 -176 -87 -91 -159 -168 -159 -171 0 -3 32 -36 71 -74 l72 -68 119 124 c66 68 171 176 234 240 l114 116 -103 106 c-56 58 -161 166 -233 240 l-131 134 -72 -68z" transform="translate(0.000000,700.000000) scale(0.100000,-0.100000)"/></g></svg>